<?xml version="1.0" standalone="no"?>
<!DOCTYPE svg PUBLIC "-//W3C//DTD SVG 20010904//EN"
 "http://www.w3.org/TR/2001/REC-SVG-20010904/DTD/svg10.dtd">
<svg version="1.0" xmlns="http://www.w3.org/2000/svg"
 width="500.000000pt" height="500.000000pt" viewBox="0 0 500.000000 500.000000"
 preserveAspectRatio="xMidYMid meet">

<g transform="translate(0.000000,500.000000) scale(0.100000,-0.100000)"
fill="#000000" stroke="none">
<path d="M2625 4620 c4 -6 11 -8 16 -5 14 9 11 15 -7 15 -8 0 -12 -5 -9 -10z"/>
<path d="M2571 4594 c-20 -23 -9 -25 18 -3 13 11 17 19 10 19 -8 -1 -20 -8
-28 -16z"/>
<path d="M4698 4603 c7 -3 16 -2 19 1 4 3 -2 6 -13 5 -11 0 -14 -3 -6 -6z"/>
<path d="M2757 4543 c-3 -5 -1 -17 4 -28 7 -17 8 -17 8 8 1 27 -4 34 -12 20z"/>
<path d="M4530 4485 c0 -32 2 -56 4 -54 8 7 10 98 3 105 -4 4 -7 -19 -7 -51z"/>
<path d="M4763 4455 c0 -38 2 -53 4 -32 2 20 2 52 0 70 -2 17 -4 1 -4 -38z"/>
<path d="M2771 4416 c-1 -26 2 -37 9 -30 6 6 6 21 1 39 -9 30 -9 30 -10 -9z"/>
<path d="M4522 4370 c0 -14 2 -19 5 -12 2 6 2 18 0 25 -3 6 -5 1 -5 -13z"/>
<path d="M2553 4345 c0 -22 2 -30 4 -17 2 12 2 30 0 40 -3 9 -5 -1 -4 -23z"/>
<path d="M4743 4315 c0 -22 2 -30 4 -17 2 12 2 30 0 40 -3 9 -5 -1 -4 -23z"/>
<path d="M2792 4310 c0 -14 2 -19 5 -12 2 6 2 18 0 25 -3 6 -5 1 -5 -13z"/>
<path d="M4501 4294 c0 -11 3 -14 6 -6 3 7 2 16 -1 19 -3 4 -6 -2 -5 -13z"/>
<path d="M2567 4255 c-4 -8 -2 -17 3 -20 6 -4 10 3 10 14 0 25 -6 27 -13 6z"/>
<path d="M2811 4244 c0 -11 3 -14 6 -6 3 7 2 16 -1 19 -3 4 -6 -2 -5 -13z"/>
<path d="M4482 4240 c0 -14 2 -19 5 -12 2 6 2 18 0 25 -3 6 -5 1 -5 -13z"/>
<path d="M918 4213 c6 -2 18 -2 25 0 6 3 1 5 -13 5 -14 0 -19 -2 -12 -5z"/>
<path d="M1148 4213 c7 -3 16 -2 19 1 4 3 -2 6 -13 5 -11 0 -14 -3 -6 -6z"/>
<path d="M2832 4200 c0 -14 2 -19 5 -12 2 6 2 18 0 25 -3 6 -5 1 -5 -13z"/>
<path d="M2580 4190 c0 -11 4 -20 9 -20 5 0 7 9 4 20 -3 11 -7 20 -9 20 -2 0
-4 -9 -4 -20z"/>
<path d="M3040 4186 c0 -14 5 -28 10 -31 6 -4 10 7 10 24 0 17 -4 31 -10 31
-5 0 -10 -11 -10 -24z"/>
<path d="M4460 4191 c0 -25 6 -27 13 -6 4 8 2 17 -3 20 -6 4 -10 -3 -10 -14z"/>
<path d="M4712 4170 c0 -14 2 -19 5 -12 2 6 2 18 0 25 -3 6 -5 1 -5 -13z"/>
<path d="M2602 4135 c0 -16 2 -22 5 -12 2 9 2 23 0 30 -3 6 -5 -1 -5 -18z"/>
<path d="M1290 4140 c0 -5 5 -10 11 -10 5 0 7 5 4 10 -3 6 -8 10 -11 10 -2 0
-4 -4 -4 -10z"/>
<path d="M4440 4135 c0 -8 2 -15 4 -15 2 0 6 7 10 15 3 8 1 15 -4 15 -6 0 -10
-7 -10 -15z"/>
<path d="M4231 4124 c0 -11 3 -14 6 -6 3 7 2 16 -1 19 -3 4 -6 -2 -5 -13z"/>
<path d="M752 4114 c-7 -8 -8 -14 -3 -14 10 0 25 19 20 25 -2 1 -10 -3 -17
-11z"/>
<path d="M4691 4104 c0 -11 3 -14 6 -6 3 7 2 16 -1 19 -3 4 -6 -2 -5 -13z"/>
<path d="M3060 4098 c0 -5 262 -7 583 -6 320 2 490 4 377 5 -528 7 -960 7
-960 1z"/>
<path d="M2621 4084 c0 -11 3 -14 6 -6 3 7 2 16 -1 19 -3 4 -6 -2 -5 -13z"/>
<path d="M4411 4064 c0 -11 3 -14 6 -6 3 7 2 16 -1 19 -3 4 -6 -2 -5 -13z"/>
<path d="M1391 4024 c0 -11 3 -14 6 -6 3 7 2 16 -1 19 -3 4 -6 -2 -5 -13z"/>
<path d="M1013 4023 c15 -2 37 -2 50 0 12 2 0 4 -28 4 -27 0 -38 -2 -22 -4z"/>
<path d="M955 4010 c-3 -5 1 -10 10 -10 9 0 13 5 10 10 -3 6 -8 10 -10 10 -2
0 -7 -4 -10 -10z"/>
<path d="M4642 4000 c-7 -11 -8 -20 -3 -20 9 0 24 30 18 36 -1 2 -8 -6 -15
-16z"/>
<path d="M1108 4003 c7 -3 16 -2 19 1 4 3 -2 6 -13 5 -11 0 -14 -3 -6 -6z"/>
<path d="M1135 3990 c-3 -5 1 -10 10 -10 9 0 13 5 10 10 -3 6 -8 10 -10 10 -2
0 -7 -4 -10 -10z"/>
<path d="M1170 3972 c0 -6 5 -14 11 -17 6 -4 14 -17 19 -29 6 -14 9 -16 9 -5
1 9 -8 26 -19 39 -11 13 -20 18 -20 12z"/>
<path d="M2670 3970 c0 -5 5 -10 11 -10 5 0 7 5 4 10 -3 6 -8 10 -11 10 -2 0
-4 -4 -4 -10z"/>
<path d="M652 3950 c0 -14 2 -19 5 -12 2 6 2 18 0 25 -3 6 -5 1 -5 -13z"/>
<path d="M1432 3945 c0 -16 2 -22 5 -12 2 9 2 23 0 30 -3 6 -5 -1 -5 -18z"/>
<path d="M4621 3944 c0 -11 3 -14 6 -6 3 7 2 16 -1 19 -3 4 -6 -2 -5 -13z"/>
<path d="M4601 3914 c0 -11 3 -14 6 -6 3 7 2 16 -1 19 -3 4 -6 -2 -5 -13z"/>
<path d="M1222 3890 c0 -14 2 -19 5 -12 2 6 2 18 0 25 -3 6 -5 1 -5 -13z"/>
<path d="M630 3870 c0 -18 4 -29 10 -25 6 3 10 15 10 25 0 10 -4 22 -10 25 -6
4 -10 -7 -10 -25z"/>
<path d="M1440 3861 c0 -25 6 -27 13 -6 4 8 2 17 -3 20 -6 4 -10 -3 -10 -14z"/>
<path d="M2730 3874 c0 -13 18 -39 24 -34 2 3 -2 14 -10 24 -8 11 -14 16 -14
10z"/>
<path d="M4555 3839 c-4 -6 -5 -12 -2 -15 2 -3 7 2 10 11 7 17 1 20 -8 4z"/>
<path d="M1243 3805 c0 -22 2 -30 4 -17 2 12 2 30 0 40 -3 9 -5 -1 -4 -23z"/>
<path d="M1440 3821 c0 -6 4 -13 10 -16 6 -3 7 1 4 9 -7 18 -14 21 -14 7z"/>
<path d="M2761 3814 c0 -11 3 -14 6 -6 3 7 2 16 -1 19 -3 4 -6 -2 -5 -13z"/>
<path d="M630 3785 c0 -19 4 -35 10 -35 5 0 9 16 8 35 -1 19 -5 35 -10 35 -4
0 -8 -16 -8 -35z"/>
<path d="M1440 3767 c0 -15 4 -27 8 -27 10 0 9 36 -1 46 -4 4 -7 -5 -7 -19z"/>
<path d="M4209 3763 c-13 -16 -12 -17 4 -4 16 13 21 21 13 21 -2 0 -10 -8 -17
-17z"/>
<path d="M861 3744 c0 -11 3 -14 6 -6 3 7 2 16 -1 19 -3 4 -6 -2 -5 -13z"/>
<path d="M1221 3744 c0 -11 3 -14 6 -6 3 7 2 16 -1 19 -3 4 -6 -2 -5 -13z"/>
<path d="M4482 3732 c-11 -25 -11 -25 4 -10 9 9 15 21 13 27 -2 6 -10 -2 -17
-17z"/>
<path d="M880 3713 c0 -6 8 -17 18 -24 16 -13 16 -13 2 6 -8 11 -16 22 -17 24
-2 2 -3 0 -3 -6z"/>
<path d="M1200 3709 c0 -5 5 -7 10 -4 6 3 10 8 10 11 0 2 -4 4 -10 4 -5 0 -10
-5 -10 -11z"/>
<path d="M3900 3710 c-13 -8 -12 -10 3 -10 9 0 17 5 17 10 0 12 -1 12 -20 0z"/>
<path d="M650 3689 c0 -11 4 -18 10 -14 5 3 7 12 3 20 -7 21 -13 19 -13 -6z"/>
<path d="M3848 3703 c6 -2 18 -2 25 0 6 3 1 5 -13 5 -14 0 -19 -2 -12 -5z"/>
<path d="M4116 3668 c-15 -16 -26 -31 -24 -33 2 -3 20 11 38 30 19 19 30 35
24 34 -5 -1 -22 -14 -38 -31z"/>
<path d="M4426 3658 l-19 -33 22 23 c12 12 21 27 19 33 -2 5 -12 -5 -22 -23z"/>
<path d="M671 3654 c0 -11 3 -14 6 -6 3 7 2 16 -1 19 -3 4 -6 -2 -5 -13z"/>
<path d="M1150 3661 c0 -5 -10 -12 -22 -14 -22 -4 -22 -4 -2 -6 12 0 27 6 34
14 9 10 9 15 1 15 -6 0 -11 -4 -11 -9z"/>
<path d="M2885 3650 c10 -11 20 -20 23 -20 3 0 -3 9 -13 20 -10 11 -20 20 -23
20 -3 0 3 -9 13 -20z"/>
<path d="M988 3623 c6 -2 18 -2 25 0 6 3 1 5 -13 5 -14 0 -19 -2 -12 -5z"/>
<path d="M1068 3623 c6 -2 18 -2 25 0 6 3 1 5 -13 5 -14 0 -19 -2 -12 -5z"/>
<path d="M4022 3576 c-28 -29 -52 -57 -52 -61 0 -4 26 18 57 48 32 31 55 58
53 61 -3 2 -29 -19 -58 -48z"/>
<path d="M700 3591 c0 -5 7 -15 17 -22 15 -13 15 -12 4 9 -12 23 -21 28 -21
13z"/>
<path d="M740 3550 c0 -5 5 -10 11 -10 5 0 7 5 4 10 -3 6 -8 10 -11 10 -2 0
-4 -4 -4 -10z"/>
<path d="M4273 3489 c-35 -34 -63 -63 -63 -65 0 -11 15 1 70 56 52 52 67 70
58 70 -2 0 -31 -28 -65 -61z"/>
<path d="M772 3516 c7 -8 15 -12 17 -11 5 6 -10 25 -20 25 -5 0 -4 -6 3 -14z"/>
<path d="M3010 3510 c13 -11 25 -20 28 -20 3 0 -3 9 -13 20 -10 11 -23 20 -28
20 -6 0 0 -9 13 -20z"/>
<path d="M3062 3456 c13 -13 25 -22 27 -20 6 5 -30 44 -41 44 -5 0 2 -11 14
-24z"/>
<path d="M863 3453 c9 -2 17 -9 17 -14 0 -5 15 -9 33 -8 l32 1 -35 13 c-19 7
-42 13 -50 13 -10 0 -9 -2 3 -5z"/>
<path d="M1218 3453 c12 -2 30 -2 40 0 9 3 -1 5 -23 4 -22 0 -30 -2 -17 -4z"/>
<path d="M1158 3433 c7 -3 16 -2 19 1 4 3 -2 6 -13 5 -11 0 -14 -3 -6 -6z"/>
<path d="M993 3424 c3 -3 26 -6 52 -6 26 0 49 3 53 6 3 3 -21 6 -53 6 -32 0
-56 -3 -52 -6z"/>
<path d="M1461 3245 c70 -72 97 -95 68 -58 -25 31 -128 133 -135 133 -4 0 26
-34 67 -75z"/>
<path d="M3887 3290 c14 -16 30 -30 35 -30 5 0 -4 14 -20 30 -17 17 -33 30
-36 30 -4 0 6 -13 21 -30z"/>
<path d="M1670 3284 c8 -8 23 -20 34 -26 19 -10 18 -8 -3 16 -26 27 -53 37
-31 10z"/>
<path d="M1745 3220 c10 -11 20 -20 23 -20 3 0 -3 9 -13 20 -10 11 -20 20 -23
20 -3 0 3 -9 13 -20z"/>
<path d="M3958 3223 c6 -2 18 -2 25 0 6 3 1 5 -13 5 -14 0 -19 -2 -12 -5z"/>
<path d="M3341 3207 c2 -1 13 -9 24 -17 19 -14 19 -14 6 3 -7 9 -18 17 -24 17
-6 0 -8 -1 -6 -3z"/>
<path d="M1775 3180 c3 -5 8 -10 11 -10 2 0 4 5 4 10 0 6 -5 10 -11 10 -5 0
-7 -4 -4 -10z"/>
<path d="M1817 3145 c10 -13 25 -27 33 -30 8 -4 2 8 -14 24 -36 37 -43 40 -19
6z"/>
<path d="M1550 3155 c0 -3 30 -36 68 -74 37 -37 81 -83 98 -102 45 -49 135
-131 140 -126 6 6 -76 87 -87 87 -5 0 -9 4 -9 9 0 8 -197 211 -206 211 -2 0
-4 -2 -4 -5z"/>
<path d="M3450 3116 c0 -2 7 -7 16 -10 8 -3 12 -2 9 4 -6 10 -25 14 -25 6z"/>
<path d="M1905 3060 c10 -11 20 -20 23 -20 3 0 -3 9 -13 20 -10 11 -20 20 -23
20 -3 0 3 -9 13 -20z"/>
<path d="M3540 3053 c0 -5 13 -17 28 -27 l27 -19 -24 26 c-26 28 -31 32 -31
20z"/>
<path d="M1960 3006 c0 -7 73 -82 110 -111 l25 -20 -20 24 c-41 49 -115 118
-115 107z"/>
<path d="M3990 2974 c14 -17 28 -29 33 -27 7 4 -3 17 -38 43 -15 11 -14 7 5
-16z"/>
<path d="M3360 2973 c8 -4 22 -16 31 -27 10 -12 20 -18 24 -15 9 10 -36 49
-54 48 -14 0 -14 -2 -1 -6z"/>
<path d="M4075 2891 c28 -27 52 -47 54 -45 5 5 -88 94 -98 94 -3 0 17 -22 44
-49z"/>
<path d="M3255 2900 c3 -5 8 -10 11 -10 2 0 4 5 4 10 0 6 -5 10 -11 10 -5 0
-7 -4 -4 -10z"/>
<path d="M3175 2840 c-53 -53 -56 -69 -4 -22 68 60 79 72 67 72 -7 -1 -35 -23
-63 -50z"/>
<path d="M3472 2870 c12 -19 28 -27 28 -14 0 7 -27 34 -34 34 -4 0 -1 -9 6
-20z"/>
<path d="M521 2865 c8 -7 159 -8 166 -1 4 3 -33 6 -82 6 -49 0 -86 -2 -84 -5z"/>
<path d="M468 2843 c7 -3 16 -2 19 1 4 3 -2 6 -13 5 -11 0 -14 -3 -6 -6z"/>
<path d="M738 2843 c7 -3 16 -2 19 1 4 3 -2 6 -13 5 -11 0 -14 -3 -6 -6z"/>
<path d="M425 2830 c-3 -5 -1 -10 4 -10 6 0 11 5 11 10 0 6 -2 10 -4 10 -3 0
-8 -4 -11 -10z"/>
<path d="M780 2830 c0 -5 5 -10 10 -10 6 0 10 5 10 10 0 6 -4 10 -10 10 -5 0
-10 -4 -10 -10z"/>
<path d="M1885 2810 c16 -16 31 -27 34 -24 3 4 0 9 -6 11 -7 3 -13 11 -13 19
0 9 -4 12 -10 9 -5 -3 -10 -1 -10 4 0 6 -5 11 -12 11 -6 0 1 -13 17 -30z"/>
<path d="M4140 2834 c0 -12 39 -54 43 -47 2 4 -6 18 -19 31 -13 12 -24 20 -24
16z"/>
<path d="M3517 2815 c-4 -8 -2 -17 3 -20 6 -4 10 3 10 14 0 25 -6 27 -13 6z"/>
<path d="M3806 2821 c-3 -5 1 -12 10 -15 22 -8 25 -4 9 11 -8 7 -16 9 -19 4z"/>
<path d="M3475 2780 c-5 -5 -19 -17 -31 -28 -11 -10 -28 -21 -37 -25 -9 -3
-17 -11 -17 -17 0 -5 -4 -10 -10 -10 -5 0 -20 -11 -34 -25 -30 -30 -14 -34 17
-4 12 12 38 33 57 48 52 39 86 71 75 71 -6 -1 -14 -5 -20 -10z"/>
<path d="M1930 2777 c0 -8 12 -24 48 -62 l23 -25 419 0 420 0 0 28 c-1 27 -1
27 -13 5 l-12 -22 -407 -1 -406 0 -36 42 c-19 24 -36 39 -36 35z"/>
<path d="M3105 2769 c-11 -16 -1 -19 13 -3 7 8 8 14 3 14 -5 0 -13 -5 -16 -11z"/>
<path d="M2445 2750 c-11 -5 -15 -9 -8 -9 6 -1 18 -4 26 -7 8 -3 17 2 20 10 7
18 -7 20 -38 6z"/>
<path d="M2585 2740 c3 -5 18 -10 33 -10 21 0 24 2 12 10 -20 13 -53 13 -45 0z"/>
<path d="M640 2725 c0 -8 7 -15 15 -15 8 0 15 7 15 15 0 8 -7 15 -15 15 -8 0
-15 -7 -15 -15z"/>
<path d="M2518 2733 c7 -3 16 -2 19 1 4 3 -2 6 -13 5 -11 0 -14 -3 -6 -6z"/>
<path d="M3908 2725 c11 -23 50 -60 55 -54 2 2 -12 20 -31 39 -19 19 -30 26
-24 15z"/>
<path d="M585 2720 c3 -5 12 -10 20 -10 8 0 17 5 20 10 4 6 -5 10 -20 10 -15
0 -24 -4 -20 -10z"/>
<path d="M3048 2708 c-27 -34 -21 -43 7 -12 27 29 29 34 18 34 -5 0 -16 -10
-25 -22z"/>
<path d="M4232 2711 c7 -11 16 -17 20 -15 5 3 2 12 -6 20 -21 20 -28 17 -14
-5z"/>
<path d="M271 2703 c-7 -8 -11 -16 -8 -19 2 -2 10 2 17 11 17 20 9 27 -9 8z"/>
<path d="M4261 2674 c0 -11 3 -14 6 -6 3 7 2 16 -1 19 -3 4 -6 -2 -5 -13z"/>
<path d="M503 2650 c-18 -11 -33 -25 -33 -32 0 -8 3 -9 8 -3 12 17 51 35 74
35 19 0 20 2 8 10 -20 13 -20 13 -57 -10z"/>
<path d="M650 2660 c0 -12 37 -14 44 -2 2 4 -6 9 -20 10 -13 1 -24 -3 -24 -8z"/>
<path d="M965 2660 c-3 -5 -1 -10 4 -10 6 0 11 5 11 10 0 6 -2 10 -4 10 -3 0
-8 -4 -11 -10z"/>
<path d="M286 2643 c-6 -14 -5 -15 5 -6 7 7 10 15 7 18 -3 3 -9 -2 -12 -12z"/>
<path d="M3976 2646 c6 -16 34 -30 34 -18 0 5 -5 13 -12 20 -16 16 -29 15 -22
-2z"/>
<path d="M4280 2653 c1 -14 30 -48 30 -34 0 7 -7 19 -15 27 -8 9 -15 12 -15 7z"/>
<path d="M736 2610 c23 -21 40 -41 37 -43 -2 -3 0 -8 6 -12 6 -3 11 0 11 8 0
17 -67 87 -83 87 -7 0 7 -18 29 -40z"/>
<path d="M981 2624 c0 -11 3 -14 6 -6 3 7 2 16 -1 19 -3 4 -6 -2 -5 -13z"/>
<path d="M2974 2603 c-10 -21 -22 -39 -26 -41 -5 -2 -8 -10 -8 -18 0 -8 -3
-14 -8 -14 -4 0 -13 -15 -20 -32 -7 -18 -18 -41 -23 -50 -12 -23 -12 -38 1
-38 6 0 10 6 10 13 0 14 84 182 101 204 7 7 7 13 2 13 -6 0 -18 -17 -29 -37z"/>
<path d="M3260 2588 c-17 -17 -28 -33 -25 -36 5 -5 23 12 54 51 23 29 3 19
-29 -15z"/>
<path d="M307 2595 c3 -8 9 -12 14 -9 12 7 11 11 -5 17 -10 4 -13 1 -9 -8z"/>
<path d="M405 2600 c-3 -5 -1 -10 4 -10 6 0 11 5 11 10 0 6 -2 10 -4 10 -3 0
-8 -4 -11 -10z"/>
<path d="M4315 2601 c-3 -5 -1 -12 5 -16 5 -3 10 1 10 9 0 18 -6 21 -15 7z"/>
<path d="M212 2575 c0 -16 2 -22 5 -12 2 9 2 23 0 30 -3 6 -5 -1 -5 -18z"/>
<path d="M812 2580 c0 -14 2 -19 5 -12 2 6 2 18 0 25 -3 6 -5 1 -5 -13z"/>
<path d="M3213 2585 c0 -8 4 -12 9 -9 5 3 6 10 3 15 -9 13 -12 11 -12 -6z"/>
<path d="M4037 2594 c-7 -8 13 -54 25 -54 4 0 8 -5 8 -11 0 -11 25 -39 35 -39
6 0 -30 54 -53 78 -7 8 -10 18 -7 23 7 10 2 12 -8 3z"/>
<path d="M430 2574 c0 -8 5 -12 10 -9 6 4 8 11 5 16 -9 14 -15 11 -15 -7z"/>
<path d="M1002 2560 c0 -19 2 -27 5 -17 2 9 2 25 0 35 -3 9 -5 1 -5 -18z"/>
<path d="M278 2564 c-4 -3 -4 -12 -1 -20 3 -8 -6 -25 -21 -39 -14 -13 -26 -31
-26 -40 0 -15 2 -15 15 -1 8 8 15 19 15 25 0 6 7 11 15 11 32 0 12 -48 -26
-62 -13 -5 -16 -17 -12 -55 2 -26 8 -50 12 -53 4 -3 11 -17 15 -32 3 -16 11
-28 16 -28 6 0 10 -7 10 -16 0 -8 4 -12 10 -9 6 4 7 -1 3 -11 -4 -12 -3 -15 6
-10 6 4 10 4 9 -1 -3 -8 57 -73 67 -73 2 0 2 8 -2 18 -3 9 5 2 18 -15 21 -29
43 -39 72 -34 5 1 6 -3 3 -7 -7 -12 104 -34 166 -34 26 1 57 6 68 12 12 6 31
13 42 15 11 3 23 7 27 11 3 3 -3 4 -13 2 -10 -1 -21 3 -23 10 -4 11 15 16 55
15 6 -1 12 3 12 8 0 5 6 6 14 3 11 -4 13 0 9 18 -6 20 -4 21 9 10 10 -8 19 -9
22 -3 3 5 0 12 -6 15 -7 4 -3 4 10 2 19 -4 22 -1 16 17 -4 12 -13 35 -21 51
-12 22 -12 27 -1 24 7 -3 19 -15 25 -29 l13 -24 0 27 c0 15 7 31 17 36 14 9
14 11 -6 22 -30 16 -68 5 -76 -21 -5 -14 -13 -19 -26 -16 -10 3 -17 0 -16 -6
1 -6 -5 -11 -13 -12 -49 -3 -140 -45 -98 -45 8 0 9 -3 3 -8 -5 -4 -10 -13 -11
-19 -2 -29 -5 -32 -18 -27 -15 6 -16 35 -1 46 5 4 1 7 -10 6 -42 -2 -119 13
-126 23 -4 7 -14 9 -23 6 -9 -4 -15 -3 -13 1 1 4 -8 17 -19 28 -15 15 -26 19
-37 12 -13 -7 -15 -5 -10 8 4 10 2 15 -3 11 -5 -3 -10 3 -10 13 0 10 4 16 8
14 5 -3 -3 11 -16 30 -17 26 -24 50 -24 86 -1 28 -3 54 -6 59 -3 5 1 11 9 15
20 7 19 36 0 36 -8 0 -15 -5 -15 -11 0 -8 -6 -7 -17 2 -15 13 -16 11 -10 -18
4 -18 2 -33 -3 -33 -11 0 -23 37 -15 49 3 5 1 12 -5 16 -5 3 -10 0 -10 -7 0
-10 -2 -10 -8 0 -5 7 -11 10 -14 6z m82 -101 c0 -19 -3 -24 -10 -17 -6 6 -8
18 -4 27 9 24 14 21 14 -10z m-22 -38 c-3 -3 -9 2 -12 12 -6 14 -5 15 5 6 7
-7 10 -15 7 -18z m500 -200 c-1 -14 -6 -25 -10 -25 -4 0 -8 11 -8 25 0 14 4
25 10 25 5 0 9 -11 8 -25z m-114 -116 c-10 -4 -28 -8 -39 -7 -15 0 -13 3 10
13 17 7 34 10 39 7 5 -3 1 -9 -10 -13z"/>
<path d="M4330 2566 c0 -9 44 -86 47 -82 2 1 -3 16 -12 32 -8 16 -15 35 -15
42 0 6 -4 12 -10 12 -5 0 -10 -2 -10 -4z"/>
<path d="M410 2531 c0 -6 5 -13 10 -16 6 -3 10 1 10 9 0 9 -4 16 -10 16 -5 0
-10 -4 -10 -9z"/>
<path d="M790 2511 c0 -17 5 -31 10 -31 6 0 10 11 10 24 0 14 -4 28 -10 31 -6
4 -10 -7 -10 -24z"/>
<path d="M190 2458 c0 -39 3 -68 7 -64 10 10 11 136 1 136 -4 0 -8 -32 -8 -72z"/>
<path d="M3558 2523 c28 -2 76 -2 105 0 28 2 5 3 -53 3 -58 0 -81 -1 -52 -3z"/>
<path d="M3728 2523 c6 -2 18 -2 25 0 6 3 1 5 -13 5 -14 0 -19 -2 -12 -5z"/>
<path d="M1030 2510 c9 -4 31 -5 50 0 34 8 33 8 -15 9 -34 0 -45 -3 -35 -9z"/>
<path d="M1558 2513 c7 -3 16 -2 19 1 4 3 -2 6 -13 5 -11 0 -14 -3 -6 -6z"/>
<path d="M1613 2513 c9 -2 25 -2 35 0 9 3 1 5 -18 5 -19 0 -27 -2 -17 -5z"/>
<path d="M2663 2449 c-1 -39 -4 -73 -7 -76 -3 -3 -372 -5 -821 -4 -538 1 -815
-2 -815 -9 0 -7 283 -10 830 -10 l831 0 -2 85 c-2 103 -13 113 -16 14z"/>
<path d="M3201 2504 c0 -11 3 -14 6 -6 3 7 2 16 -1 19 -3 4 -6 -2 -5 -13z"/>
<path d="M398 2466 c-3 -14 -1 -31 3 -38 6 -8 9 1 9 25 0 42 -6 48 -12 13z"/>
<path d="M1020 2472 c0 -5 6 -16 13 -24 10 -15 14 -15 25 -2 11 12 10 14 -5
15 -10 1 -4 5 12 9 30 8 30 8 -7 9 -21 0 -38 -3 -38 -7z"/>
<path d="M1138 2473 c12 -2 30 -2 40 0 9 3 -1 5 -23 4 -22 0 -30 -2 -17 -4z"/>
<path d="M1213 2473 c9 -2 23 -2 30 0 6 3 -1 5 -18 5 -16 0 -22 -2 -12 -5z"/>
<path d="M1302 2468 c-11 -4 -4 -7 20 -7 20 -1 39 2 41 7 6 9 -38 9 -61 0z"/>
<path d="M1510 2470 c52 -3 86 -7 75 -9 l-20 -2 20 -8 c18 -7 65 -8 90 -1 6 2
-8 6 -30 10 -25 4 19 8 118 9 99 0 157 -3 157 -9 0 -5 7 -10 16 -10 8 0 12 5
9 10 -4 6 14 10 47 10 37 0 48 -3 38 -10 -21 -13 -5 -24 17 -11 10 6 14 11 8
12 -5 1 4 5 20 9 17 4 -125 7 -315 7 -191 -1 -303 -4 -250 -7z"/>
<path d="M2158 2473 c7 -3 16 -2 19 1 4 3 -2 6 -13 5 -11 0 -14 -3 -6 -6z"/>
<path d="M2288 2473 c46 -2 118 -2 160 0 42 1 5 3 -83 3 -88 0 -123 -2 -77 -3z"/>
<path d="M4117 2450 c3 -14 9 -26 14 -28 5 -2 9 -12 9 -22 0 -10 5 -22 10 -25
6 -3 10 -15 10 -26 0 -11 5 -17 10 -14 7 4 6 14 -2 28 -7 12 -13 24 -13 27 -9
37 -19 60 -25 60 -5 0 -10 6 -13 13 -2 6 -2 1 0 -13z"/>
<path d="M854 2453 c2 -13 1 -23 -2 -23 -4 0 -7 -16 -8 -35 -1 -42 5 -39 15 7
4 18 4 42 -1 53 -8 18 -8 18 -4 -2z"/>
<path d="M1000 2450 c0 -5 5 -10 11 -10 5 0 7 5 4 10 -3 6 -8 10 -11 10 -2 0
-4 -4 -4 -10z"/>
<path d="M1168 2453 c23 -2 59 -2 80 0 20 2 1 4 -43 4 -44 0 -61 -2 -37 -4z"/>
<path d="M1388 2453 c6 -2 18 -2 25 0 6 3 1 5 -13 5 -14 0 -19 -2 -12 -5z"/>
<path d="M1498 2453 c7 -3 16 -2 19 1 4 3 -2 6 -13 5 -11 0 -14 -3 -6 -6z"/>
<path d="M1728 2453 c6 -2 18 -2 25 0 6 3 1 5 -13 5 -14 0 -19 -2 -12 -5z"/>
<path d="M3160 2450 c0 -5 5 -10 10 -10 6 0 10 5 10 10 0 6 -4 10 -10 10 -5 0
-10 -4 -10 -10z"/>
<path d="M4389 2455 c-6 -6 2 -41 22 -90 4 -11 10 -29 12 -40 4 -15 5 -13 6 7
0 15 -3 29 -9 33 -5 3 -7 12 -3 20 3 9 1 21 -5 28 -5 6 -11 20 -13 30 -2 11
-7 16 -10 12z"/>
<path d="M3368 2425 c-10 -13 -18 -26 -18 -29 0 -3 130 -6 289 -6 284 0 289 0
284 20 -3 11 -9 20 -14 20 -5 0 -6 -7 -3 -15 5 -13 -28 -15 -260 -15 -273 0
-290 2 -254 38 7 7 8 12 3 12 -6 0 -18 -11 -27 -25z"/>
<path d="M1116 2429 c2 -4 -1 -9 -8 -11 -28 -10 7 -28 50 -27 42 1 44 2 17 9
-16 4 -22 8 -13 9 11 1 15 6 12 16 -4 9 -17 14 -34 13 -16 -1 -27 -5 -24 -9z"/>
<path d="M1418 2433 c7 -3 16 -2 19 1 4 3 -2 6 -13 5 -11 0 -14 -3 -6 -6z"/>
<path d="M1705 2430 c3 -5 10 -10 16 -10 5 0 9 5 9 10 0 6 -7 10 -16 10 -8 0
-12 -4 -9 -10z"/>
<path d="M1814 2431 c4 -5 0 -12 -6 -14 -7 -3 2 -6 21 -6 29 -1 32 1 21 14
-13 16 -45 21 -36 6z"/>
<path d="M3145 2421 c-3 -5 -1 -12 5 -16 5 -3 10 1 10 9 0 18 -6 21 -15 7z"/>
<path d="M790 2394 c0 -14 4 -23 10 -19 6 3 10 15 10 26 0 10 -4 19 -10 19 -5
0 -10 -12 -10 -26z"/>
<path d="M1065 2410 c4 -6 11 -8 16 -5 14 9 11 15 -7 15 -8 0 -12 -5 -9 -10z"/>
<path d="M1542 2405 c-11 -13 -4 -15 50 -13 39 1 50 3 28 5 -19 3 -39 9 -44
14 -13 12 -19 11 -34 -6z"/>
<path d="M2103 2413 c9 -2 23 -2 30 0 6 3 -1 5 -18 5 -16 0 -22 -2 -12 -5z"/>
<path d="M2258 2413 c12 -2 32 -2 45 0 12 2 2 4 -23 4 -25 0 -35 -2 -22 -4z"/>
<path d="M2539 2411 c11 -7 10 -10 -5 -14 -10 -2 7 -5 39 -6 52 -1 57 1 43 14
-8 8 -32 15 -53 15 -26 0 -34 -3 -24 -9z m48 -7 c-3 -3 -12 -4 -19 -1 -8 3 -5
6 6 6 11 1 17 -2 13 -5z"/>
<path d="M871 2394 c0 -11 3 -14 6 -6 3 7 2 16 -1 19 -3 4 -6 -2 -5 -13z"/>
<path d="M1018 2403 c7 -3 16 -2 19 1 4 3 -2 6 -13 5 -11 0 -14 -3 -6 -6z"/>
<path d="M410 2391 c0 -6 5 -13 10 -16 6 -3 10 1 10 9 0 9 -4 16 -10 16 -5 0
-10 -4 -10 -9z"/>
<path d="M1348 2393 c7 -3 16 -2 19 1 4 3 -2 6 -13 5 -11 0 -14 -3 -6 -6z"/>
<path d="M1883 2393 c9 -2 23 -2 30 0 6 3 -1 5 -18 5 -16 0 -22 -2 -12 -5z"/>
<path d="M1978 2393 c7 -3 16 -2 19 1 4 3 -2 6 -13 5 -11 0 -14 -3 -6 -6z"/>
<path d="M2037 2393 c18 -2 50 -2 70 0 21 2 7 4 -32 4 -38 0 -55 -2 -38 -4z"/>
<path d="M2223 2393 c9 -2 23 -2 30 0 6 3 -1 5 -18 5 -16 0 -22 -2 -12 -5z"/>
<path d="M2398 2393 c7 -3 16 -2 19 1 4 3 -2 6 -13 5 -11 0 -14 -3 -6 -6z"/>
<path d="M2872 2380 c0 -14 2 -19 5 -12 2 6 2 18 0 25 -3 6 -5 1 -5 -13z"/>
<path d="M3126 2391 c-4 -7 -5 -15 -2 -18 9 -9 19 4 14 18 -4 11 -6 11 -12 0z"/>
<path d="M950 2366 c0 -2 8 -10 18 -17 15 -13 16 -12 3 4 -13 16 -21 21 -21
13z"/>
<path d="M210 2347 c0 -8 7 -28 15 -43 14 -27 15 -27 15 -6 0 12 -5 22 -11 22
-6 0 -9 7 -6 15 4 8 2 17 -3 20 -6 4 -10 0 -10 -8z"/>
<path d="M430 2355 c0 -4 11 -18 26 -31 14 -13 22 -24 18 -24 -3 0 -1 -7 6
-15 13 -15 41 -21 39 -7 -1 10 -89 86 -89 77z"/>
<path d="M773 2348 c-23 -30 -24 -41 -2 -21 12 12 20 25 17 28 -3 3 -10 0 -15
-7z"/>
<path d="M997 2336 c3 -13 0 -27 -6 -30 -14 -9 -14 -26 0 -26 5 0 8 4 4 9 -3
5 -1 12 5 16 12 8 13 42 1 49 -4 3 -6 -5 -4 -18z"/>
<path d="M3111 2344 c0 -11 3 -14 6 -6 3 7 2 16 -1 19 -3 4 -6 -2 -5 -13z"/>
<path d="M2852 2310 c0 -19 2 -27 5 -17 2 9 2 25 0 35 -3 9 -5 1 -5 -18z"/>
<path d="M3056 2313 c-6 -14 -5 -15 5 -6 7 7 10 15 7 18 -3 3 -9 -2 -12 -12z"/>
<path d="M4180 2290 c0 -16 4 -30 8 -30 5 0 7 14 4 30 -2 17 -6 30 -8 30 -2 0
-4 -13 -4 -30z"/>
<path d="M3091 2294 c0 -11 3 -14 6 -6 3 7 2 16 -1 19 -3 4 -6 -2 -5 -13z"/>
<path d="M704 2285 c-10 -8 -32 -15 -48 -15 -22 0 -27 -3 -19 -11 12 -12 83 6
83 21 0 5 8 11 18 13 13 4 14 5 1 6 -8 0 -24 -6 -35 -14z"/>
<path d="M4443 2250 c0 -25 2 -35 4 -22 2 12 2 32 0 45 -2 12 -4 2 -4 -23z"/>
<path d="M2830 2119 c0 -136 3 -166 14 -166 11 0 12 6 5 24 -5 14 -7 82 -5
152 3 70 1 133 -4 141 -6 10 -10 -44 -10 -151z"/>
<path d="M2883 2265 c-3 -9 -3 -18 -1 -21 3 -3 8 4 11 16 6 23 -1 27 -10 5z"/>
<path d="M240 2264 c0 -8 39 -63 62 -88 34 -37 27 -11 -8 29 -19 22 -34 45
-34 52 0 7 -4 13 -10 13 -5 0 -10 -3 -10 -6z"/>
<path d="M540 2260 c19 -13 30 -13 30 0 0 6 -10 10 -22 10 -19 0 -20 -2 -8
-10z"/>
<path d="M960 2256 c0 -9 5 -16 10 -16 6 0 10 4 10 9 0 6 -4 13 -10 16 -5 3
-10 -1 -10 -9z"/>
<path d="M3077 2243 c-2 -5 -5 -32 -6 -61 -1 -37 1 -52 9 -47 6 4 10 30 9 61
-2 54 -4 61 -12 47z"/>
<path d="M4199 2238 c-6 -22 -6 -44 1 -62 7 -17 9 -13 9 22 1 23 -1 42 -4 42
-3 0 -5 -1 -6 -2z"/>
<path d="M2867 2199 c8 -8 9 -18 3 -30 -7 -12 -6 -20 2 -25 6 -4 8 -3 4 4 -3
6 -2 13 4 17 16 10 12 32 -7 40 -14 5 -15 4 -6 -6z"/>
<path d="M902 2174 c-7 -8 -8 -14 -3 -14 10 0 25 19 20 25 -2 1 -10 -3 -17
-11z"/>
<path d="M1985 2149 c-52 -39 -62 -49 -48 -49 6 0 28 16 49 35 l39 35 300 -4
300 -3 6 -79 5 -79 2 88 2 87 -307 0 -308 -1 -40 -30z"/>
<path d="M4460 2173 c0 -5 -3 -31 -6 -60 -4 -29 -2 -59 5 -70 8 -14 10 -1 11
60 0 42 -2 77 -5 77 -3 0 -5 -3 -5 -7z"/>
<path d="M335 2150 c-3 -5 -1 -10 4 -10 6 0 11 5 11 10 0 6 -2 10 -4 10 -3 0
-8 -4 -11 -10z"/>
<path d="M360 2130 c0 -5 5 -10 11 -10 5 0 7 5 4 10 -3 6 -8 10 -11 10 -2 0
-4 -4 -4 -10z"/>
<path d="M855 2130 c-3 -5 -1 -10 4 -10 6 0 11 5 11 10 0 6 -2 10 -4 10 -3 0
-8 -4 -11 -10z"/>
<path d="M2100 2119 c0 -7 10 -9 30 -6 20 5 28 3 26 -6 -1 -7 -1 -9 1 -4 7 11
61 8 69 -4 5 -8 8 -8 13 0 4 6 33 12 64 12 106 3 48 16 -78 18 -90 1 -125 -1
-125 -10z"/>
<path d="M2385 2120 c3 -5 8 -10 11 -10 2 0 4 5 4 10 0 6 -5 10 -11 10 -5 0
-7 -4 -4 -10z"/>
<path d="M2440 2115 c10 -12 10 -15 -1 -15 -10 -1 -8 -4 4 -11 9 -5 21 -8 26
-4 5 3 12 1 16 -5 4 -6 -9 -10 -34 -10 -32 0 -39 3 -35 15 4 9 0 15 -9 15 -21
0 -31 -17 -15 -23 7 -3 -4 -6 -24 -6 -24 -1 -38 4 -38 12 0 9 -2 9 -8 -1 -6
-8 -43 -13 -115 -15 -194 -5 -124 -17 96 -16 122 0 219 4 222 10 4 5 1 9 -4 9
-6 0 -10 6 -8 13 1 7 -10 13 -26 15 -15 2 -25 7 -22 12 3 5 12 7 20 3 8 -3 15
0 15 6 0 6 -16 11 -36 11 -31 0 -35 -2 -24 -15z"/>
<path d="M2536 2118 c5 -7 9 -22 9 -33 -1 -25 23 -44 47 -37 22 5 24 32 3 32
-8 0 -15 9 -15 20 0 21 15 27 23 10 3 -6 4 -5 3 2 -1 7 -20 14 -41 16 -29 2
-36 0 -29 -10z"/>
<path d="M390 2113 c0 -13 60 -43 86 -43 13 0 24 -4 24 -10 0 -6 25 -9 58 -8
l57 2 -50 3 c-27 2 -54 8 -59 14 -6 5 -23 9 -38 9 -15 0 -28 5 -28 10 0 6 -7
10 -15 10 -8 0 -15 5 -15 10 0 6 -4 10 -10 10 -5 0 -10 -3 -10 -7z"/>
<path d="M810 2105 c-14 -16 -10 -18 14 -9 9 3 16 10 16 15 0 14 -16 11 -30
-6z"/>
<path d="M2940 2107 c0 -7 -9 -18 -20 -25 -16 -10 -20 -23 -20 -67 l0 -55 53
1 c28 1 42 4 30 6 -19 4 -23 11 -23 39 0 20 -5 34 -12 34 -9 0 -9 3 0 12 14
14 16 68 2 68 -5 0 -10 -6 -10 -13z"/>
<path d="M780 2091 c0 -8 -8 -11 -20 -8 -11 3 -20 1 -20 -4 0 -13 37 -11 45 2
4 6 4 13 1 16 -3 4 -6 1 -6 -6z"/>
<path d="M3262 2075 c0 -16 2 -22 5 -12 2 9 2 23 0 30 -3 6 -5 -1 -5 -18z"/>
<path d="M2972 2060 c0 -14 2 -19 5 -12 2 6 2 18 0 25 -3 6 -5 1 -5 -13z"/>
<path d="M670 2060 c-11 -7 -3 -10 28 -10 26 0 41 4 37 10 -8 13 -45 13 -65 0z"/>
<path d="M1865 2040 c-39 -41 -28 -44 15 -3 19 18 30 33 24 33 -5 0 -23 -13
-39 -30z"/>
<path d="M3011 2054 c0 -11 3 -14 6 -6 3 7 2 16 -1 19 -3 4 -6 -2 -5 -13z"/>
<path d="M3998 2043 c-3 -26 -7 -28 -52 -31 -72 -4 -70 -12 2 -12 l62 0 0 35
c0 42 -7 46 -12 8z"/>
<path d="M2875 2009 c-4 -18 -3 -35 4 -42 8 -8 11 0 11 31 0 50 -6 54 -15 11z"/>
<path d="M3070 2005 c0 -22 4 -34 10 -30 6 3 10 17 10 30 0 13 -4 27 -10 30
-6 4 -10 -8 -10 -30z"/>
<path d="M1893 2015 c-3 -9 -3 -19 1 -22 3 -4 6 1 6 10 0 8 6 18 13 20 9 4 9
6 -1 6 -7 1 -15 -6 -19 -14z"/>
<path d="M2120 2021 c0 -7 -4 -10 -9 -7 -4 3 -42 -28 -83 -69 -42 -42 -72 -77
-68 -80 10 -6 130 110 130 125 0 6 6 10 14 10 17 0 31 18 22 27 -3 4 -6 1 -6
-6z"/>
<path d="M2140 2009 c0 -3 57 -7 127 -7 84 -1 123 2 113 8 -16 11 -240 9 -240
-1z"/>
<path d="M2428 2013 c6 -2 18 -2 25 0 6 3 1 5 -13 5 -14 0 -19 -2 -12 -5z"/>
<path d="M2498 2013 c7 -3 16 -2 19 1 4 3 -2 6 -13 5 -11 0 -14 -3 -6 -6z"/>
<path d="M3320 2010 l-45 -7 42 -1 c23 -1 45 3 48 8 3 6 5 9 3 8 -2 0 -23 -4
-48 -8z"/>
<path d="M4203 1985 c0 -22 2 -30 4 -17 2 12 2 30 0 40 -3 9 -5 -1 -4 -23z"/>
<path d="M4443 1960 c0 -25 2 -35 4 -22 2 12 2 32 0 45 -2 12 -4 2 -4 -23z"/>
<path d="M1760 1935 c-24 -25 -40 -45 -36 -45 5 0 16 8 25 18 9 10 29 27 44
39 15 12 24 24 19 27 -5 3 -28 -15 -52 -39z"/>
<path d="M3042 1945 c0 -16 2 -22 5 -12 2 9 2 23 0 30 -3 6 -5 -1 -5 -18z"/>
<path d="M1915 1953 c6 -4 15 -19 21 -32 7 -17 13 -21 18 -13 4 7 2 12 -5 12
-8 0 -8 4 1 15 8 9 8 15 2 15 -6 0 -19 3 -29 6 -10 3 -14 2 -8 -3z"/>
<path d="M2923 1938 c-35 -17 -30 -48 8 -48 16 0 28 -3 26 -7 -3 -5 15 -9 39
-10 24 -1 44 2 44 7 0 6 -18 10 -40 10 -38 0 -40 2 -40 30 0 33 -4 34 -37 18z"/>
<path d="M2850 1907 c0 -20 4 -37 9 -37 5 0 7 15 4 33 -7 45 -13 47 -13 4z"/>
<path d="M3091 1918 c-1 -29 18 -78 29 -78 4 0 7 -6 7 -12 1 -18 43 -95 43
-79 0 7 -6 25 -14 39 -20 40 -34 72 -50 117 -13 35 -15 37 -15 13z"/>
<path d="M1862 1918 c-22 -22 -14 -39 15 -32 22 6 25 4 20 -10 -9 -22 10 -20
22 3 8 14 6 22 -8 35 -21 19 -33 20 -49 4z"/>
<path d="M4182 1910 c0 -14 2 -19 5 -12 2 6 2 18 0 25 -3 6 -5 1 -5 -13z"/>
<path d="M2881 1904 c0 -11 3 -14 6 -6 3 7 2 16 -1 19 -3 4 -6 -2 -5 -13z"/>
<path d="M3057 1903 c-12 -12 -7 -41 8 -47 12 -4 14 0 9 22 -8 33 -9 34 -17
25z"/>
<path d="M4225 1899 c-4 -6 -5 -12 -2 -15 2 -3 7 2 10 11 7 17 1 20 -8 4z"/>
<path d="M4422 1870 c0 -14 2 -19 5 -12 2 6 2 18 0 25 -3 6 -5 1 -5 -13z"/>
<path d="M1638 1810 c-36 -36 -83 -85 -104 -110 -21 -25 11 3 71 62 60 59 107
109 105 110 -3 2 -35 -26 -72 -62z"/>
<path d="M2900 1855 c0 -14 5 -25 10 -25 6 0 10 -9 10 -21 0 -13 4 -18 12 -13
7 5 8 3 4 -5 -5 -7 0 -21 10 -32 9 -10 14 -22 11 -26 -4 -3 -7 0 -7 8 0 12 -2
11 -10 -1 -9 -13 -12 -12 -25 4 -13 17 -15 18 -15 3 0 -9 5 -17 10 -17 6 0 10
-6 10 -12 0 -19 52 -118 62 -118 4 0 8 -7 8 -16 0 -13 5 -11 21 7 11 13 18 19
15 13 -6 -12 38 -67 47 -58 3 3 3 -5 0 -18 -3 -12 -3 -20 1 -16 4 3 27 -13 49
-36 26 -26 48 -41 57 -38 13 5 13 3 0 -13 -14 -17 -13 -18 3 -12 11 4 16 3 12
-3 -3 -6 1 -10 10 -10 9 0 14 -4 11 -9 -5 -8 61 -81 95 -106 48 -35 104 -81
107 -88 2 -4 9 -4 14 -1 6 4 8 2 4 -4 -3 -6 -1 -14 5 -18 8 -4 7 -9 -2 -16
-11 -7 -9 -8 4 -4 10 3 27 1 38 -5 16 -8 18 -13 8 -25 -10 -12 -9 -13 5 -8 9
3 16 10 16 15 0 4 17 -8 38 -26 20 -19 40 -35 44 -35 4 0 20 -11 35 -25 15
-14 34 -30 41 -35 7 -6 10 -16 6 -21 -3 -5 -18 3 -32 19 -27 29 -75 62 -89 62
-10 0 29 -35 81 -74 35 -26 39 -27 48 -12 9 16 11 16 25 -3 8 -12 19 -21 25
-21 7 0 7 4 0 13 -8 10 -6 13 7 13 10 0 18 -6 18 -13 0 -7 -3 -13 -7 -13 -3 0
-6 -12 -5 -27 0 -22 5 -29 24 -31 15 -2 21 0 17 7 -4 6 -3 11 3 11 19 0 21
-19 4 -30 -16 -10 -15 -11 5 -7 13 3 20 1 16 -5 -8 -12 26 -37 43 -31 7 3 19
0 27 -6 7 -6 17 -7 21 -3 5 4 5 1 1 -6 -6 -10 -11 -10 -22 -1 -8 6 -17 9 -20
6 -3 -3 11 -18 32 -34 20 -15 56 -45 79 -65 23 -21 50 -38 59 -38 9 0 15 -5
14 -11 -2 -6 3 -14 11 -17 8 -3 11 0 7 7 -4 6 -2 11 4 11 7 0 9 -8 5 -21 -6
-18 -4 -20 17 -15 12 3 17 3 11 0 -22 -10 -14 -25 10 -21 12 2 16 2 10 0 -19
-7 -17 -12 25 -52 73 -71 72 -71 233 -71 80 0 148 3 152 6 7 7 -4 22 -53 70
-21 21 -38 30 -43 25 -6 -6 -15 -4 -23 4 -19 18 -18 31 1 15 9 -8 15 -9 15 -2
0 13 -20 26 -39 27 -8 0 -16 7 -18 15 -4 13 -3 13 6 0 5 -8 13 -11 17 -7 8 8
-95 117 -111 117 -6 0 -7 -3 0 -8 6 -4 17 -16 25 -26 14 -18 14 -19 -9 -6 -13
7 -42 31 -65 54 -23 24 -54 51 -71 62 -37 23 -70 51 -106 86 -15 15 -29 26
-31 25 -2 -1 0 2 5 8 5 6 10 6 15 -2 10 -15 83 -73 93 -73 4 0 -8 16 -28 35
-20 19 -39 35 -42 35 -3 0 -22 14 -41 30 -40 34 -52 38 -44 13 4 -11 2 -14 -3
-7 -4 5 -19 10 -32 10 -28 0 -40 21 -17 30 18 7 10 34 -11 34 -13 0 -13 -3 -3
-15 10 -12 10 -15 -2 -15 -16 0 -38 19 -38 33 0 4 4 6 9 2 5 -3 12 -1 16 5 3
5 2 10 -4 10 -5 0 -22 11 -37 25 -29 27 -54 34 -34 10 7 -8 18 -15 25 -15 15
0 28 -27 16 -35 -5 -3 -11 2 -15 10 -3 8 -12 15 -19 15 -8 0 -32 13 -54 29
-23 16 -44 27 -49 23 -4 -4 -4 -2 -1 4 4 7 1 17 -7 23 -11 9 -14 8 -12 -6 0
-12 -7 -19 -21 -21 -18 -3 -23 1 -23 20 0 41 -12 69 -26 64 -22 -8 -29 16 -9
31 11 7 14 13 8 13 -6 0 -16 -7 -23 -15 -12 -14 -15 -13 -35 5 -12 11 -31 20
-43 20 -12 0 -21 6 -19 13 1 7 -6 11 -18 9 -15 -2 -17 -1 -6 6 7 6 10 15 6 21
-5 9 -10 9 -21 0 -8 -6 -17 -9 -21 -5 -3 3 -1 6 6 6 9 0 9 5 1 20 -6 11 -20
20 -30 20 -11 0 -20 5 -20 11 0 5 6 7 13 3 6 -4 3 2 -7 14 -23 26 -30 28 -22
6 4 -11 -3 -9 -27 7 -37 26 -48 40 -41 51 3 4 -2 5 -10 2 -11 -4 -13 0 -9 18
4 18 3 20 -6 8 -10 -13 -14 -11 -31 10 -11 14 -20 28 -20 33 0 4 -6 7 -13 7
-8 0 -22 9 -32 20 -10 11 -22 17 -27 13 -6 -3 -14 1 -19 8 -8 12 -12 11 -23
-3 -12 -16 -15 -16 -35 -2 -20 14 -22 24 -20 77 2 45 -1 62 -12 66 -7 2 -20
10 -28 18 -11 12 -11 16 5 28 18 13 18 14 2 15 -10 0 -18 6 -18 13 0 7 -3 8
-8 2 -11 -15 -55 -11 -60 5 -6 18 -50 60 -63 60 -5 0 -9 -11 -9 -25z m70 -149
c0 -7 6 -24 13 -39 9 -19 18 -25 34 -22 16 2 20 0 16 -12 -5 -12 -7 -12 -14
-1 -6 9 -9 6 -9 -11 0 -23 -1 -24 -20 -6 -11 10 -20 22 -20 28 0 5 -9 22 -21
38 -11 16 -18 33 -14 38 7 13 35 2 35 -13z m97 -1 c0 -8 -4 -12 -9 -9 -5 3 -6
10 -3 15 9 13 12 11 12 -6z m-67 -15 c0 -5 -2 -10 -4 -10 -3 0 -8 5 -11 10 -3
6 -1 10 4 10 6 0 11 -4 11 -10z m27 -12 c-3 -8 -6 -5 -6 6 -1 11 2 17 5 13 3
-3 4 -12 1 -19z m43 -28 c0 -5 -4 -10 -10 -10 -5 0 -10 5 -10 10 0 6 5 10 10
10 6 0 10 -4 10 -10z m216 -187 c-4 -4 -12 -1 -19 7 -9 10 -9 11 1 6 7 -4 12
-2 13 6 0 11 2 11 6 0 3 -7 2 -16 -1 -19z m104 -81 c0 -25 -10 -26 -14 0 -1 7
-5 19 -9 25 -6 9 -3 11 7 7 9 -3 16 -18 16 -32z m65 -12 c3 -5 1 -10 -4 -10
-6 0 -11 5 -11 10 0 6 2 10 4 10 3 0 8 -4 11 -10z m315 -450 c0 -5 -2 -10 -4
-10 -3 0 -8 5 -11 10 -3 6 -1 10 4 10 6 0 11 -4 11 -10z m214 -157 l20 -27
-27 20 c-14 10 -27 22 -27 27 0 15 16 6 34 -20z m46 -43 c0 -5 -7 -7 -15 -4
-8 4 -15 8 -15 10 0 2 7 4 15 4 8 0 15 -4 15 -10z m193 -167 c5 -9 34 -13 85
-13 53 0 72 -3 62 -10 -21 -14 -122 -12 -140 3 -8 7 -24 23 -35 37 l-20 25 20
-15 c11 -8 24 -21 28 -27z m278 -20 c12 -14 12 -16 -1 -8 -8 5 -33 8 -55 8
l-40 -1 35 8 c19 4 38 8 41 9 4 0 13 -7 20 -16z"/>
<path d="M4162 1860 c0 -14 2 -19 5 -12 2 6 2 18 0 25 -3 6 -5 1 -5 -13z"/>
<path d="M1924 1837 c-11 -12 -41 -41 -66 -63 -47 -44 -69 -77 -42 -67 7 3 14
8 14 13 0 4 28 34 62 68 34 34 60 64 57 67 -3 2 -14 -5 -25 -18z"/>
<path d="M2876 1815 c6 -44 10 -52 21 -42 3 4 1 17 -5 30 -6 12 -13 29 -16 37
-3 8 -3 -3 0 -25z"/>
<path d="M1850 1825 c-11 -13 -10 -14 4 -9 9 3 16 10 16 15 0 13 -6 11 -20 -6z"/>
<path d="M1711 1817 c-1 -11 -6 -15 -13 -11 -7 5 -8 3 -3 -5 10 -16 29 2 22
21 -4 8 -6 7 -6 -5z"/>
<path d="M3055 1820 c3 -5 8 -10 11 -10 2 0 4 5 4 10 0 6 -5 10 -11 10 -5 0
-7 -4 -4 -10z"/>
<path d="M4140 1821 c0 -6 4 -12 8 -15 5 -3 9 1 9 9 0 8 -4 15 -9 15 -4 0 -8
-4 -8 -9z"/>
<path d="M4400 1809 c0 -11 5 -17 10 -14 6 3 10 13 10 21 0 8 -4 14 -10 14 -5
0 -10 -9 -10 -21z"/>
<path d="M1735 1805 c4 -11 8 -35 9 -53 1 -20 5 -31 13 -28 6 3 14 0 17 -7 2
-7 5 -5 5 5 1 9 -3 20 -9 23 -5 3 -10 15 -10 26 0 11 -8 28 -17 37 -16 16 -16
16 -8 -3z"/>
<path d="M4340 1787 c0 -9 -5 -17 -12 -17 -6 0 -8 -3 -5 -6 3 -4 2 -15 -4 -25
-7 -15 -6 -17 6 -13 8 4 15 14 15 24 0 10 6 20 13 23 10 4 10 7 0 18 -11 11
-13 10 -13 -4z"/>
<path d="M4386 1771 c-4 -7 -5 -15 -2 -18 9 -9 19 4 14 18 -4 11 -6 11 -12 0z"/>
<path d="M1791 1754 c0 -11 3 -14 6 -6 3 7 2 16 -1 19 -3 4 -6 -2 -5 -13z"/>
<path d="M1640 1750 c0 -5 5 -10 10 -10 21 0 9 -20 -22 -36 l-33 -17 20 23 20
23 -20 -11 c-31 -16 -74 -72 -68 -88 3 -9 -2 -14 -17 -14 -22 0 -22 0 4 -27
15 -15 37 -28 49 -30 12 -2 26 -8 31 -13 6 -6 15 -10 21 -10 15 0 145 126 138
134 -3 3 -35 -23 -70 -57 -35 -34 -68 -63 -72 -65 -4 -1 -16 7 -27 19 -19 21
-19 22 2 15 17 -5 27 0 43 19 11 15 25 24 30 20 7 -3 8 0 5 9 -3 9 -9 14 -13
11 -4 -2 -5 13 -1 33 3 20 2 47 -3 60 -10 22 -27 30 -27 12z m-40 -85 c0 -8
-7 -15 -16 -15 -14 0 -14 3 -4 15 7 8 14 15 16 15 2 0 4 -7 4 -15z m44 -13 c3
-5 -1 -9 -9 -9 -8 0 -12 4 -9 9 3 4 7 8 9 8 2 0 6 -4 9 -8z"/>
<path d="M1700 1744 c0 -8 5 -12 10 -9 6 3 10 10 10 16 0 5 -4 9 -10 9 -5 0
-10 -7 -10 -16z"/>
<path d="M3847 1733 c-10 -18 -25 -37 -34 -43 -17 -10 -17 -11 1 -8 10 2 24
12 30 23 6 11 15 23 20 26 5 4 6 13 4 20 -3 9 -11 2 -21 -18z"/>
<path d="M4110 1749 c0 -5 5 -7 10 -4 6 3 10 8 10 11 0 2 -4 4 -10 4 -5 0 -10
-5 -10 -11z"/>
<path d="M3180 1733 c1 -14 30 -48 30 -34 0 7 -7 19 -15 27 -8 9 -15 12 -15 7z"/>
<path d="M4366 1725 c-3 -8 -1 -15 4 -15 6 0 10 7 10 15 0 8 -2 15 -4 15 -2 0
-6 -7 -10 -15z"/>
<path d="M3495 1707 c-14 -11 -15 -16 -5 -22 9 -5 11 -4 6 3 -4 7 -3 12 3 12
5 0 11 -6 14 -12 3 -7 4 -3 4 10 -1 12 -2 22 -2 22 -1 0 -9 -6 -20 -13z"/>
<path d="M3540 1716 c0 -2 7 -6 15 -10 8 -3 15 -1 15 4 0 6 -7 10 -15 10 -8 0
-15 -2 -15 -4z"/>
<path d="M3750 1716 c0 -2 8 -10 18 -17 15 -13 16 -12 3 4 -13 16 -21 21 -21
13z"/>
<path d="M4135 1703 c4 -14 2 -23 -4 -23 -6 0 -11 6 -11 12 0 7 -7 2 -16 -10
-9 -13 -13 -26 -9 -30 3 -3 11 0 16 8 9 12 10 11 5 -5 -5 -18 -4 -18 13 3 13
15 21 18 24 10 2 -7 2 -2 0 12 -3 14 -9 30 -15 35 -7 7 -8 3 -3 -12z"/>
<path d="M3110 1698 c0 -7 5 -20 10 -28 8 -12 10 -9 10 13 0 15 -4 27 -10 27
-5 0 -10 -6 -10 -12z"/>
<path d="M3720 1700 c0 -5 5 -10 10 -10 6 0 10 5 10 10 0 6 -4 10 -10 10 -5 0
-10 -4 -10 -10z"/>
<path d="M4070 1685 c0 -8 -5 -15 -11 -15 -5 0 -7 -5 -4 -11 5 -6 12 -4 21 8
16 22 18 33 4 33 -5 0 -10 -7 -10 -15z"/>
<path d="M4350 1685 c0 -8 -4 -15 -8 -15 -4 0 -13 -14 -20 -32 -11 -31 -11
-31 8 -10 19 20 38 72 26 72 -3 0 -6 -7 -6 -15z"/>
<path d="M3216 1682 c-3 -5 4 -19 15 -30 36 -39 33 -27 -7 36 -1 2 -5 -1 -8
-6z"/>
<path d="M3450 1681 c0 -5 7 -12 16 -15 14 -5 15 -4 4 9 -14 17 -20 19 -20 6z"/>
<path d="M1680 1675 c0 -10 29 -24 34 -17 3 6 -3 12 -14 15 -11 3 -20 4 -20 2z"/>
<path d="M4256 1662 c-4 -7 -2 -20 6 -29 11 -15 11 -16 -5 -10 -11 4 -16 3
-12 -3 3 -6 1 -10 -5 -10 -6 0 -13 7 -16 15 -8 19 -24 20 -24 1 0 -20 -17 -29
-26 -15 -5 8 -3 9 5 4 9 -5 12 -2 9 11 -1 9 -6 17 -10 16 -5 -1 -17 -2 -29 -2
-11 0 -18 -4 -15 -9 7 -11 -13 -9 -32 2 -7 5 -24 -1 -42 -15 -27 -21 -43 -47
-20 -33 6 3 10 2 10 -4 0 -5 -9 -13 -20 -16 -18 -6 -24 -17 -21 -37 0 -4 -6
-5 -15 -1 -13 5 -15 1 -10 -18 3 -13 3 -18 0 -11 -3 6 -10 12 -15 12 -6 0 -9
-6 -7 -12 1 -7 -9 -25 -23 -40 -27 -29 -51 -39 -29 -13 7 9 10 18 6 22 -3 3
-6 2 -6 -4 0 -15 -52 -27 -59 -14 -4 6 -18 1 -35 -14 -24 -21 -25 -24 -8 -22
12 0 18 5 15 11 -3 5 -1 6 5 2 6 -4 9 -13 6 -20 -3 -9 5 -15 24 -19 27 -6 30
-10 28 -42 -1 -20 2 -39 6 -41 5 -3 8 9 8 27 0 40 9 34 12 -8 1 -18 6 -29 10
-27 5 3 6 10 3 15 -4 5 3 5 17 0 27 -10 47 0 103 51 25 24 43 34 49 28 11 -11
-39 -70 -58 -70 -6 -1 -29 -16 -51 -35 -28 -25 -35 -35 -22 -35 9 0 17 5 17
10 0 6 7 10 15 10 8 0 15 3 15 8 0 4 16 18 35 31 20 13 43 37 52 52 9 15 21
25 26 22 6 -3 7 -1 3 6 -4 6 -12 9 -17 6 -5 -4 -9 -1 -9 4 0 6 5 11 10 11 6 0
10 6 10 13 0 8 12 19 26 25 15 7 22 17 18 24 -4 7 -3 8 4 4 7 -4 12 -1 12 8 0
9 4 16 9 16 9 0 54 67 55 82 1 3 5 10 10 15 6 5 6 2 1 -7 -5 -9 -5 -12 1 -7 5
5 9 12 9 15 0 4 3 12 6 17 9 16 -5 62 -15 47z m-159 -54 c-3 -8 -6 -5 -6 6 -1
11 2 17 5 13 3 -3 4 -12 1 -19z m-17 -2 c0 -3 -4 -8 -10 -11 -5 -3 -10 -1 -10
4 0 6 5 11 10 11 6 0 10 -2 10 -4z"/>
<path d="M1451 1624 c-13 -13 -20 -24 -14 -24 5 0 20 11 33 25 30 32 13 31
-19 -1z"/>
<path d="M3771 1641 c-7 -5 -9 -11 -5 -14 5 -3 15 1 22 9 14 16 5 18 -17 5z"/>
<path d="M3960 1564 c-46 -46 -81 -84 -78 -84 11 0 82 63 127 113 74 80 41 61
-49 -29z"/>
<path d="M3110 1629 c0 -5 5 -7 10 -4 6 3 10 8 10 11 0 2 -4 4 -10 4 -5 0 -10
-5 -10 -11z"/>
<path d="M3280 1596 c47 -53 99 -103 104 -99 2 2 -17 25 -43 51 -58 58 -96 88
-61 48z"/>
<path d="M3583 1613 c31 -2 83 -2 115 0 31 2 5 3 -58 3 -63 0 -89 -1 -57 -3z"/>
<path d="M4268 1563 c-14 -21 -41 -55 -61 -75 -20 -21 -33 -38 -29 -38 4 0 -4
-9 -18 -20 -14 -10 -22 -21 -18 -25 9 -9 98 85 98 104 0 5 7 11 15 15 8 3 21
18 27 33 7 15 17 31 23 35 7 5 6 8 -1 8 -6 0 -23 -17 -36 -37z"/>
<path d="M1396 1565 c-9 -14 -15 -25 -13 -25 2 0 13 11 25 25 12 14 18 25 13
25 -5 0 -16 -11 -25 -25z"/>
<path d="M1500 1575 c-8 -9 -8 -15 -2 -15 12 0 26 19 19 26 -2 2 -10 -2 -17
-11z"/>
<path d="M3238 1573 c7 -3 16 -2 19 1 4 3 -2 6 -13 5 -11 0 -14 -3 -6 -6z"/>
<path d="M1402 1514 c-34 -37 -58 -54 -68 -50 -9 3 -12 11 -8 18 6 10 4 11 -7
1 -7 -7 -22 -13 -33 -13 -17 -1 -15 -4 9 -14 27 -12 28 -14 11 -21 -10 -5 -26
-4 -35 2 -9 5 -43 8 -76 7 -33 -1 -64 1 -70 4 -28 17 -225 1 -225 -19 0 -5 -6
-9 -14 -9 -8 0 -18 -5 -22 -12 -5 -7 -3 -8 6 -3 8 5 11 4 7 -3 -4 -5 -15 -8
-25 -6 -20 6 -53 -37 -33 -44 18 -6 13 -18 -15 -30 -14 -7 -23 -8 -19 -2 3 5
2 10 -4 10 -11 0 -41 -56 -41 -77 0 -8 -4 -11 -10 -8 -10 6 -14 -6 -11 -37 1
-10 -2 -18 -7 -18 -5 0 -8 -37 -6 -82 3 -107 7 -135 22 -150 7 -7 12 -18 12
-25 0 -7 4 -13 10 -13 5 0 6 -7 3 -17 -5 -12 -3 -14 8 -9 8 4 6 1 -3 -7 -24
-19 -23 -30 2 -22 12 4 20 2 20 -5 0 -6 11 -16 25 -22 28 -13 33 -28 9 -28 -8
0 -12 5 -9 10 3 6 2 10 -4 10 -26 0 -18 -22 19 -46 22 -15 40 -31 40 -35 0 -5
9 -9 20 -9 11 0 20 -3 20 -7 0 -13 255 -15 285 -3 20 7 31 8 39 0 12 -12 53
-14 58 -2 2 4 21 16 43 27 44 22 95 72 95 94 0 11 -3 11 -15 1 -8 -7 -15 -18
-15 -24 0 -6 -18 -22 -40 -36 -22 -14 -40 -27 -40 -31 0 -3 -7 -6 -16 -6 -10
0 0 15 26 39 22 21 46 36 52 32 7 -4 8 -3 4 4 -4 7 -2 12 3 12 6 0 11 5 11 11
0 5 12 25 27 44 15 18 28 41 29 52 1 10 5 29 8 43 11 44 17 127 8 105 -8 -18
-9 -17 -14 7 -3 15 0 29 6 32 6 2 1 5 -11 5 -16 1 -20 -3 -16 -19 4 -14 0 -20
-12 -20 -13 0 -16 6 -12 21 3 11 0 22 -6 25 -13 5 -16 92 -4 111 4 6 3 14 -3
18 -16 10 -11 28 6 21 13 -5 15 -1 11 19 -5 30 32 81 116 157 29 27 46 48 40
48 -7 0 -13 5 -13 10 0 6 12 10 28 10 18 0 23 3 14 9 -7 4 -25 6 -38 3 -21 -4
-24 -9 -19 -29 4 -16 2 -22 -5 -18 -16 10 -12 43 8 54 9 6 12 11 7 11 -6 0
-17 -6 -23 -12 -10 -10 -17 -10 -32 0 -11 6 -23 12 -27 12 -5 -1 -32 -26 -61
-56z m99 -7 c-8 -8 -11 -7 -11 4 0 9 3 19 7 23 4 4 9 2 11 -4 3 -7 -1 -17 -7
-23z m-46 6 c-4 -10 -8 -24 -8 -31 0 -8 -4 -9 -10 -3 -11 11 0 51 15 51 6 0 7
-7 3 -17z m15 -70 c0 -5 -8 -17 -17 -28 -14 -18 -15 -18 -9 -2 3 10 6 23 6 28
0 5 5 9 10 9 6 0 10 -3 10 -7z m-30 -11 c0 -13 -12 -22 -22 -16 -10 6 -1 24
13 24 5 0 9 -4 9 -8z m-316 -101 c3 -4 23 -11 43 -14 21 -4 51 -19 68 -34 16
-16 33 -27 37 -26 4 2 5 -4 1 -13 -3 -8 -11 -13 -18 -10 -8 3 -11 -2 -8 -15 3
-10 9 -19 14 -19 5 0 9 -9 9 -20 0 -11 5 -20 10 -20 6 0 10 -26 10 -59 0 -33
4 -63 10 -66 6 -4 0 -23 -14 -50 -14 -24 -22 -46 -18 -50 3 -3 0 -3 -9 0 -9 3
-25 -5 -39 -20 -13 -14 -31 -25 -41 -25 -10 0 -21 -4 -24 -10 -3 -5 -28 -10
-55 -10 -27 0 -52 5 -55 10 -3 6 -19 10 -34 10 -30 0 -66 30 -44 37 7 3 -1 18
-19 38 -27 29 -33 31 -45 19 -17 -17 -27 -18 -17 -3 3 6 2 14 -4 18 -19 12
-33 142 -19 174 13 31 22 34 31 12 3 -9 -1 -18 -9 -21 -17 -7 -22 -109 -5
-119 6 -4 10 14 10 48 0 30 7 68 16 86 9 18 13 35 10 38 -3 4 -6 1 -6 -5 0 -6
-7 -9 -15 -5 -14 5 -14 8 1 31 12 19 13 24 3 20 -9 -4 -14 3 -15 19 -2 18 1
21 11 13 8 -7 15 -7 19 -1 3 5 16 7 29 4 18 -4 19 -3 7 7 -12 9 -10 10 13 5
22 -4 27 -3 21 7 -4 7 -4 10 0 6 4 -3 22 0 39 7 36 16 93 19 101 6z m186 -159
c0 -7 3 -11 8 -9 4 3 5 -23 3 -56 l-5 -62 -6 50 c-3 28 -14 65 -24 83 -10 19
-14 41 -11 50 6 14 10 11 21 -13 7 -16 13 -36 14 -43z m-385 -201 c-3 -5 4
-16 15 -24 11 -7 17 -16 14 -20 -9 -9 -35 4 -28 14 3 5 -2 12 -11 15 -13 6
-14 8 -3 15 17 11 20 11 13 0z m-41 -197 c46 -26 56 -42 19 -30 -18 6 -81 56
-71 56 3 0 27 -12 52 -26z"/>
<path d="M1020 1309 c0 -5 -5 -7 -12 -3 -7 4 -8 3 -4 -4 8 -14 46 -16 46 -3 0
4 11 6 24 4 13 -3 27 0 30 6 5 7 -8 11 -38 11 -26 0 -46 -5 -46 -11z"/>
<path d="M1123 1299 c-13 -6 -10 -8 14 -8 17 -1 34 3 37 7 6 10 -27 10 -51 1z"/>
<path d="M947 1266 c-15 -13 -24 -26 -21 -29 3 -3 17 5 31 19 33 33 25 40 -10
10z"/>
<path d="M1180 1278 c0 -4 4 -8 9 -8 6 0 12 4 15 8 3 5 -1 9 -9 9 -8 0 -15 -4
-15 -9z"/>
<path d="M1210 1260 c0 -5 5 -10 10 -10 6 0 10 5 10 10 0 6 -4 10 -10 10 -5 0
-10 -4 -10 -10z"/>
<path d="M890 1020 c0 -5 5 -10 11 -10 5 0 7 5 4 10 -3 6 -8 10 -11 10 -2 0
-4 -4 -4 -10z"/>
<path d="M1270 1015 c0 -19 -75 -95 -95 -95 -8 0 -15 -4 -15 -10 0 -19 26 -10
58 20 18 17 36 30 40 30 7 0 32 48 32 62 0 4 -4 8 -10 8 -5 0 -10 -7 -10 -15z"/>
<path d="M990 916 c0 -9 30 -14 35 -6 4 6 -3 10 -14 10 -12 0 -21 -2 -21 -4z"/>
<path d="M1073 893 c15 -2 37 -2 50 0 12 2 0 4 -28 4 -27 0 -38 -2 -22 -4z"/>
<path d="M1589 1495 c-18 -19 -36 -32 -42 -28 -6 3 -7 1 -3 -5 4 -7 9 -12 11
-12 6 0 75 70 75 75 0 11 -11 3 -41 -30z"/>
<path d="M3051 1503 c24 -31 39 -45 39 -36 -1 11 -36 53 -45 53 -4 0 -1 -8 6
-17z"/>
<path d="M970 1500 c0 -12 44 -12 80 0 20 6 14 8 -27 9 -29 1 -53 -3 -53 -9z"/>
<path d="M1150 1500 c0 -5 9 -10 20 -10 11 0 20 5 20 10 0 6 -9 10 -20 10 -11
0 -20 -4 -20 -10z"/>
<path d="M928 1483 c6 -2 18 -2 25 0 6 3 1 5 -13 5 -14 0 -19 -2 -12 -5z"/>
<path d="M1200 1486 c0 -9 40 -13 46 -5 3 5 -6 9 -20 9 -14 0 -26 -2 -26 -4z"/>
<path d="M888 1463 c7 -3 16 -2 19 1 4 3 -2 6 -13 5 -11 0 -14 -3 -6 -6z"/>
<path d="M3106 1448 c15 -24 110 -120 129 -131 11 -6 -14 24 -55 66 -74 76
-88 88 -74 65z"/>
<path d="M830 1430 c0 -5 5 -10 11 -10 5 0 7 5 4 10 -3 6 -8 10 -11 10 -2 0
-4 -4 -4 -10z"/>
<path d="M3477 1410 c10 -11 21 -20 25 -20 4 0 0 9 -9 20 -10 11 -21 20 -25
20 -4 0 0 -9 9 -20z"/>
<path d="M1499 1403 c-13 -16 -12 -17 4 -4 9 7 17 15 17 17 0 8 -8 3 -21 -13z"/>
<path d="M786 1383 c-6 -14 -5 -15 5 -6 7 7 10 15 7 18 -3 3 -9 -2 -12 -12z"/>
<path d="M3780 1385 c7 -8 22 -17 33 -21 12 -4 30 -16 40 -27 9 -11 20 -17 23
-14 8 8 -36 46 -53 47 -7 0 -13 4 -13 9 0 5 -9 11 -21 14 -16 4 -18 3 -9 -8z"/>
<path d="M3527 1369 c7 -7 15 -10 18 -7 3 3 -2 9 -12 12 -14 6 -15 5 -6 -5z"/>
<path d="M753 1355 c-7 -8 -13 -18 -13 -24 0 -5 -5 -11 -11 -13 -7 -2 -10 -11
-7 -18 4 -11 9 -7 18 12 7 15 17 25 21 22 5 -3 9 4 9 15 0 24 -1 25 -17 6z"/>
<path d="M785 1340 c3 -5 10 -10 16 -10 5 0 9 5 9 10 0 6 -7 10 -16 10 -8 0
-12 -4 -9 -10z"/>
<path d="M3570 1335 c7 -8 17 -15 22 -15 5 0 3 7 -6 15 -8 8 -18 15 -22 15 -3
0 -1 -7 6 -15z"/>
<path d="M1430 1334 c0 -13 18 -39 24 -34 2 3 -2 14 -10 24 -8 11 -14 16 -14
10z"/>
<path d="M3606 1294 c-5 -14 -4 -15 9 -4 17 14 19 20 6 20 -5 0 -12 -7 -15
-16z"/>
<path d="M1460 1278 c0 -9 5 -20 10 -23 6 -3 11 -21 11 -38 2 -27 3 -28 6 -7
2 14 -3 39 -11 55 -10 19 -16 24 -16 13z"/>
<path d="M3277 1284 c-7 -7 52 -64 67 -64 5 0 17 -10 28 -22 14 -16 21 -19 28
-10 6 7 7 10 4 7 -6 -4 -100 68 -115 88 -3 4 -8 4 -12 1z"/>
<path d="M3656 1271 c-3 -5 1 -12 10 -15 22 -8 25 -4 9 11 -8 7 -16 9 -19 4z"/>
<path d="M691 1224 c0 -11 3 -14 6 -6 3 7 2 16 -1 19 -3 4 -6 -2 -5 -13z"/>
<path d="M3705 1230 c3 -5 8 -10 11 -10 2 0 4 5 4 10 0 6 -5 10 -11 10 -5 0
-7 -4 -4 -10z"/>
<path d="M3682 1199 c1 -12 9 -24 16 -25 7 -1 8 0 3 2 -6 3 -8 11 -5 19 3 7 0
16 -6 20 -8 5 -11 0 -8 -16z"/>
<path d="M671 1103 c-1 -45 4 -85 9 -88 6 -3 10 -16 10 -28 0 -12 7 -35 15
-51 8 -15 15 -35 15 -42 0 -8 5 -14 10 -14 6 0 10 9 10 20 0 11 -4 20 -10 20
-5 0 -10 9 -10 20 0 11 -4 20 -9 20 -6 0 -10 8 -9 18 0 9 -3 28 -7 42 -4 14
-6 41 -6 60 0 19 -3 51 -8 70 -7 29 -9 21 -10 -47z"/>
<path d="M1496 1164 c-10 -26 -7 -142 4 -149 6 -4 10 25 10 79 0 86 -3 100
-14 70z"/>
<path d="M3410 1169 c0 -5 5 -7 10 -4 6 3 10 8 10 11 0 2 -4 4 -10 4 -5 0 -10
-5 -10 -11z"/>
<path d="M3510 1090 c20 -13 33 -13 25 0 -3 6 -14 10 -23 10 -15 0 -15 -2 -2
-10z"/>
<path d="M3230 1036 c0 -15 27 -29 34 -18 3 5 -4 13 -15 20 -15 10 -19 10 -19
-2z"/>
<path d="M3191 1010 c-8 -4 -10 -13 -7 -19 4 -6 4 -10 -1 -9 -4 2 -19 -5 -32
-14 -21 -15 -23 -19 -10 -35 12 -16 12 -17 -2 -6 -13 11 -29 -1 -107 -78 -51
-50 -92 -95 -92 -101 0 -5 5 -6 12 -2 7 5 8 3 4 -5 -5 -7 -14 -10 -22 -7 -8 3
-14 -1 -14 -9 0 -8 -5 -15 -11 -15 -6 0 -8 -7 -5 -16 3 -9 2 -12 -5 -8 -12 7
-121 -105 -113 -118 3 -4 -2 -5 -10 -2 -9 3 -16 1 -16 -5 0 -6 9 -11 19 -11
26 0 35 -16 15 -24 -23 -9 -26 -8 -18 7 6 9 4 9 -8 -1 -8 -7 -23 -10 -32 -6
-9 3 -16 1 -16 -5 0 -8 48 -11 153 -11 l154 0 56 54 c57 54 70 73 42 62 -12
-4 -13 -2 -2 15 10 16 13 17 15 4 2 -8 5 -15 8 -15 2 0 58 54 125 121 l121
121 -24 26 c-13 15 -16 21 -7 14 21 -16 32 -4 13 15 -10 11 -18 12 -27 4 -10
-7 -20 -4 -40 14 -14 14 -31 25 -37 25 -5 0 -10 5 -10 10 0 17 -36 11 -53 -8
-10 -10 -14 -21 -11 -25 3 -3 -4 -3 -17 0 -17 5 -20 3 -14 -7 6 -9 4 -11 -5
-5 -9 5 -2 17 25 40 33 30 38 55 6 35z m-77 -124 c-3 -8 -17 -22 -31 -31 -24
-16 -24 -16 -13 5 6 11 15 18 19 15 5 -3 11 2 15 10 3 8 8 15 10 15 3 0 3 -6
0 -14z m176 -91 c-7 -9 -15 -13 -19 -10 -3 3 1 10 9 15 21 14 24 12 10 -5z"/>
<path d="M3270 1006 c0 -9 59 -66 69 -66 15 0 14 9 -3 25 -7 8 -16 11 -20 8
-3 -4 -6 -1 -6 5 0 6 -9 16 -20 22 -11 6 -20 9 -20 6z"/>
<path d="M1481 989 c0 -8 -12 -38 -26 -65 -14 -27 -25 -53 -25 -57 0 -18 29
22 36 49 4 16 11 32 16 35 6 4 8 17 5 30 -2 13 -5 17 -6 8z"/>
<path d="M3686 962 c-2 -4 7 -12 20 -19 13 -6 24 -8 24 -4 0 10 -39 31 -44 23z"/>
<path d="M3390 890 c0 -5 5 -10 10 -10 6 0 10 5 10 10 0 6 -4 10 -10 10 -5 0
-10 -4 -10 -10z"/>
<path d="M4169 873 c6 -13 15 -23 19 -23 13 0 72 -57 65 -64 -3 -3 -2 -6 4 -6
24 0 18 14 -20 48 -23 21 -51 44 -61 52 -18 14 -19 14 -7 -7z"/>
<path d="M760 852 c0 -12 19 -26 26 -19 2 2 -2 10 -11 17 -9 8 -15 8 -15 2z"/>
<path d="M946 710 c12 -12 187 -28 211 -19 10 4 -19 8 -64 8 -45 1 -85 6 -88
11 -3 6 -20 10 -38 10 -20 0 -28 -3 -21 -10z"/>
<path d="M1175 710 c3 -5 17 -10 31 -10 13 0 24 5 24 10 0 6 -14 10 -31 10
-17 0 -28 -4 -24 -10z"/>
<path d="M2740 540 c0 -5 5 -10 10 -10 6 0 10 5 10 10 0 6 -4 10 -10 10 -5 0
-10 -4 -10 -10z"/>
</g>
</svg>
